<mxfile host="app.diagrams.net" modified="2023-05-07T17:38:58.212Z" agent="Mozilla/5.0 (Windows NT 10.0; Win64; x64) AppleWebKit/537.36 (KHTML, like Gecko) Chrome/113.0.0.0 Safari/537.36" etag="VM2v81H0RcWGi-6yR_SX" version="21.2.9" type="github">
  <diagram name="Page-1" id="rTHZCiTWFvaF-pPm5ABr">
    <mxGraphModel dx="1877" dy="483" grid="1" gridSize="10" guides="1" tooltips="1" connect="1" arrows="1" fold="1" page="1" pageScale="1" pageWidth="827" pageHeight="1169" math="0" shadow="0">
      <root>
        <mxCell id="0" />
        <mxCell id="1" parent="0" />
        <mxCell id="CWYjVtsPUNxwbl47y-k5-1" value="SamWorld Database For Code" style="shape=cylinder3;whiteSpace=wrap;html=1;boundedLbl=1;backgroundOutline=1;size=15;" vertex="1" parent="1">
          <mxGeometry x="340" y="295" width="60" height="80" as="geometry" />
        </mxCell>
        <mxCell id="CWYjVtsPUNxwbl47y-k5-2" value="" style="image;points=[];aspect=fixed;html=1;align=center;shadow=0;dashed=0;image=img/lib/allied_telesis/computer_and_terminals/Personal_Computer.svg;" vertex="1" parent="1">
          <mxGeometry x="104.4" y="140" width="45.6" height="61.800000000000004" as="geometry" />
        </mxCell>
        <mxCell id="CWYjVtsPUNxwbl47y-k5-3" value="&lt;font style=&quot;font-size: 36px;&quot;&gt;Source Control - Git &amp;amp; GitHub&lt;/font&gt;" style="text;html=1;align=center;verticalAlign=middle;resizable=0;points=[];autosize=1;strokeColor=none;fillColor=none;" vertex="1" parent="1">
          <mxGeometry x="220" y="20" width="500" height="60" as="geometry" />
        </mxCell>
        <mxCell id="CWYjVtsPUNxwbl47y-k5-4" value="&lt;b&gt;Old Days&lt;/b&gt; - Write code&lt;br&gt;Press Save, and saves on PC Harddrive" style="text;html=1;align=center;verticalAlign=middle;resizable=0;points=[];autosize=1;strokeColor=none;fillColor=none;" vertex="1" parent="1">
          <mxGeometry y="80" width="240" height="40" as="geometry" />
        </mxCell>
        <mxCell id="CWYjVtsPUNxwbl47y-k5-5" value="Cons - Computer breaks = Lose code&amp;nbsp;&lt;br&gt;Can&#39;t share, other people can&#39;t contribute and you can&#39;t access it if you are away" style="text;html=1;align=center;verticalAlign=middle;resizable=0;points=[];autosize=1;strokeColor=none;fillColor=none;" vertex="1" parent="1">
          <mxGeometry x="-80" y="113" width="450" height="40" as="geometry" />
        </mxCell>
        <mxCell id="CWYjVtsPUNxwbl47y-k5-6" value="" style="image;aspect=fixed;perimeter=ellipsePerimeter;html=1;align=center;shadow=0;dashed=0;spacingTop=3;image=img/lib/active_directory/internet_globe.svg;" vertex="1" parent="1">
          <mxGeometry x="150" y="245" width="50" height="50" as="geometry" />
        </mxCell>
        <mxCell id="CWYjVtsPUNxwbl47y-k5-7" value="Then Internet came - Save Code there" style="text;html=1;align=center;verticalAlign=middle;resizable=0;points=[];autosize=1;strokeColor=none;fillColor=none;" vertex="1" parent="1">
          <mxGeometry x="-85" y="255" width="230" height="30" as="geometry" />
        </mxCell>
        <mxCell id="CWYjVtsPUNxwbl47y-k5-8" value="SamWorldServer" style="image;points=[];aspect=fixed;html=1;align=center;shadow=0;dashed=0;image=img/lib/allied_telesis/computer_and_terminals/Personal_Computer.svg;" vertex="1" parent="1">
          <mxGeometry x="230" y="233" width="45.6" height="61.800000000000004" as="geometry" />
        </mxCell>
        <mxCell id="CWYjVtsPUNxwbl47y-k5-9" value="SamWorld Folder For Code" style="image;html=1;image=img/lib/clip_art/general/Empty_Folder_128x128.png" vertex="1" parent="1">
          <mxGeometry x="340" y="214.8" width="40" height="45" as="geometry" />
        </mxCell>
        <mxCell id="CWYjVtsPUNxwbl47y-k5-11" value="" style="image;points=[];aspect=fixed;html=1;align=center;shadow=0;dashed=0;image=img/lib/allied_telesis/computer_and_terminals/Personal_Computer.svg;" vertex="1" parent="1">
          <mxGeometry x="4.399999999999999" y="294.8" width="45.6" height="61.800000000000004" as="geometry" />
        </mxCell>
        <mxCell id="CWYjVtsPUNxwbl47y-k5-13" value="" style="outlineConnect=0;dashed=0;verticalLabelPosition=bottom;verticalAlign=top;align=center;html=1;shape=mxgraph.aws3.elastic_ip;fillColor=#F58534;gradientColor=none;rotation=-15;" vertex="1" parent="1">
          <mxGeometry x="50" y="294.8" width="90" height="21" as="geometry" />
        </mxCell>
        <mxCell id="CWYjVtsPUNxwbl47y-k5-14" value="&lt;b&gt;Not so Old Days&lt;/b&gt; : Program Microsoft Source Safe" style="text;html=1;align=center;verticalAlign=middle;resizable=0;points=[];autosize=1;strokeColor=none;fillColor=none;" vertex="1" parent="1">
          <mxGeometry x="50" y="326.6" width="290" height="30" as="geometry" />
        </mxCell>
        <mxCell id="CWYjVtsPUNxwbl47y-k5-15" value="Pros: Computer breaks we have backup in Source Control.&lt;br&gt;Code can now be shared, accessed by multiple locations and worked with by other developer.&lt;br&gt;Now people can download your code , with a new name , add changes (essentially creating a new version of it) and&lt;br&gt;&amp;nbsp;then push their changes up to your code base (master code) only after the changes have been assessed / reviewed and approved.&amp;nbsp;" style="text;html=1;align=center;verticalAlign=middle;resizable=0;points=[];autosize=1;strokeColor=none;fillColor=none;" vertex="1" parent="1">
          <mxGeometry x="-130" y="398" width="720" height="70" as="geometry" />
        </mxCell>
        <mxCell id="CWYjVtsPUNxwbl47y-k5-16" value="Storage of the code e.g. Master" style="text;html=1;align=center;verticalAlign=middle;resizable=0;points=[];autosize=1;strokeColor=none;fillColor=none;" vertex="1" parent="1">
          <mxGeometry x="255" y="368" width="190" height="30" as="geometry" />
        </mxCell>
      </root>
    </mxGraphModel>
  </diagram>
</mxfile>
